<svg xmlns="http://www.w3.org/2000/svg" viewBox="0 0 2125.7 3438.4"><g id="图层_2" data-name="图层 2"><g id="Layer_1" data-name="Layer 1"><g opacity="0.2"><path d="M523.7,426.54C593.81,801.92,647,1078.2,678.4,1215.66c6.27,27.42,13.19,56,6.59,93.13-19.22,108-166.09,158.41-181.63,267C497.77,1614.93,511,1654,524,1691.27c50.73,145.11,68.51,187.66,126.6,362.12,7.29,21.89,23.87,72.56,50.63,141,12,30.73,20.52,50.86,26.82,66.07,56.2,135.66,86.93,203.65,83.27,240-10.63,105.32-105.15,210.43-205,225-65.39,9.55-155-16.52-206.27-75.32-37.81-43.41-72.76-125.08-109.91-122.88-10,.59-23.54,3.4-57.46,58.81l-97.32,159c-22,35.93-44.29,72.54-54.85,113.32-23.36,90.19,13.72,183.82,50.09,269.58,33.84,79.81,69.9,162.68,136.13,218.6,35.51,30,78.14,50.64,122.26,65.25,143.21,47.44,306.39,30.69,437-44.86,173.85-100.59,232.84-284.95,256.69-356.46,17-51.14,19.67-79.39,56.33-192.24,61.48-189.3,89.7-219.41,104.69-233,64.14-58.2,126.8-32.46,265-49.92,29.72-3.75,409.75-56.53,549.27-309.83,34.06-61.83,46.29-122,53.34-156.66,6.05-29.78,27.94-148.28-11.93-317.46-43.79-185.83-94.93-182.53-128.67-342.61-18.14-86-14-175.28-2.63-262.45,11.91-90.82,31.55-184.14,8.21-272.72,0,0-17.17-60.51-59.1-120-124.49-176.7-459.63-241.89-646.17-271.44C1085.44,452.73,831,424.42,523.7,426.54Z" fill="#000072"/></g><path d="M1663.7,2397.1c-183.2,36.9-318.1,68-420,188.15-35.75,42.2-67.4,95.4-95.7,163.65l0,.1c-21.7,52.3-44,111.1-69.55,170.65-101.75,237.1-255.55,486.75-628.95,392.15-195.9-49.6-318.75-182.3-381.3-337.15-31.9-79-48.1-163.7-50.25-246.15-3-112.35,20.05-220.35,64.9-303.6v-.05l0,0c32.75-60.75,77.1-108.3,131.4-134.65,165.9-80.45,303.9,93.9,185.8,360-15.75,35.55-24.85,75.4-27.35,115.4-.65,10.2-.85,20.45-.6,30.6,1.65,74.3,26.35,145.4,74.4,185.95,87.15,73.55,322,106.75,447.15-191.3,75.8-180.5,148.25-301.3,250.65-382.2,96-75.9,218.5-116.75,394.75-138.75Z" fill="#fff"/><g opacity="0.25"><path d="M400.07,2650.17c-15.75,35.51-24.87,75.4-27.36,115.4,0,0,0,0,0-.07-35.74-75,80.85-365-46.53-415.24-145.17-57.2-240.85,71.25-243.3,74.55,32.73-60.76,77.11-108.28,131.42-134.64C380.13,2209.72,518.14,2384,400.07,2650.17Z" fill="#6b184e"/></g><g opacity="0.3"><path d="M1078.41,2919.64c-101.77,237.11-255.58,486.75-629,392.18-195.89-49.64-318.78-182.32-381.28-337.16,89.38,134,257.61,284.78,554.55,253.12C870.4,3201.39,1007.08,3046.28,1078.41,2919.64Z" fill="#000072"/></g><path d="M400.05,2650.15c-15.75,35.55-24.85,75.4-27.35,115.4-.65,10.2-.85,20.45-.6,30.6-70.15,22.8-147,25-218,4.9-49.9-14.15-96.4-39.3-136.2-72.55-3-112.35,20.05-220.35,64.9-303.6v-.05l0,0c32.75-60.75,77.1-108.3,131.4-134.65C380.15,2209.7,518.15,2384.05,400.05,2650.15Z" fill="#ff6f03"/><g opacity="0.6"><path d="M115.41,2467.55v-.05l0-.05c32.75-60.75,77.1-108.3,131.4-134.65,66.59-32.3,128.67-23.5,171.52,15.77-39.07-73.13-117.82-100.27-204.13-58.42-54.3,26.35-98.65,73.9-131.4,134.65l0,0v.05C38,2508.15,14.9,2616.15,17.9,2728.5a383.66,383.66,0,0,0,32.38,24.23C50.13,2647,73,2546.24,115.41,2467.55Z" fill="#fff"/></g><g opacity="0.3"><path d="M1663.69,2397.08c-183.21,36.93-318.11,68-420,188.18,0-28.18-2-54.24-7.08-75.78-9.2-39.29-53.83-71.25-92.35-100.87,96-75.92,218.5-116.74,394.78-138.76Z" fill="#000072"/></g><path d="M603.08,3350q-74.13,0-157.94-21.27C312.92,3295.28,206,3224.17,127.42,3117.4,59.42,3025,16.74,2910.24,4,2785.43c-23.66-231.5,59.68-441.63,202.66-511,71.63-34.76,144.17-26.72,194,21.49,59.45,57.45,94.71,182.54,15.38,361.34-48.32,108.92-29.2,251.55,41.74,311.47,39.77,33.58,115.8,58.84,196,39.56,65.73-15.8,157.9-67.54,223.72-224.25,81.07-193,152.4-303.51,246.21-381.29,98.15-81.39,221.72-126.33,413.18-150.27a17.5,17.5,0,0,1,4.35,34.73c-345.61,43.21-481.35,152.92-631.48,510.39-71.48,170.21-174.2,227-247.79,244.72-98.37,23.66-183.62-10.45-226.73-46.85-83.23-70.29-106.18-228.37-51.15-352.4,72.09-162.49,40.9-275-7.71-322-39.45-38.13-95.76-43.66-154.46-15.17C94,2368,17,2568.16,38.8,2781.87c26.8,262.19,181.91,454,414.94,513,184,46.62,328.48,11.93,441.64-106,99-103.21,158-251,210.09-381.36,9.11-22.82,17.71-44.37,26.37-65.25,52.28-126.26,120-210.2,213.23-264.18,85-49.22,184.24-71.7,315.16-98.09a17.5,17.5,0,0,1,6.92,34.31c-252,50.78-399.58,91.67-503,341.35-8.56,20.68-17.12,42.13-26.19,64.84-53.25,133.34-113.6,284.48-217.34,392.62C832.76,3304.64,728,3350,603.08,3350Z" fill="#000072"/><path d="M979.53,2210.91C762.42,2024,778.69,1885.84,633.89,1771.33c-111.45-88.14-136.4-241.18-142.3-286.15-22-167.58,161.79-253.5,263-48.93,126.44,255.53,590.8-24.92,639.68,396" fill="#fff"/><ellipse cx="587.26" cy="1543.39" rx="57.08" ry="73.67" transform="translate(-226.84 106.67) rotate(-8.71)" fill="#ff67a0"/><ellipse cx="622.13" cy="1438.34" rx="19.76" ry="30.04" transform="translate(-210.55 110.74) rotate(-8.71)" fill="#ff9fa4"/><ellipse cx="558.94" cy="1423.18" rx="22.89" ry="32.98" transform="translate(-208.98 101) rotate(-8.71)" fill="#ff67a0"/><ellipse cx="518.18" cy="1461.08" rx="16.03" ry="30.04" transform="translate(-215.18 95.27) rotate(-8.71)" fill="#ff67a0"/><path d="M979.52,2228.41a17.4,17.4,0,0,1-11.41-4.24C848.29,2121,798.37,2032.77,754.33,1954.9c-36.25-64.09-67.56-119.44-131.3-169.85-106.55-84.26-138.95-222.62-148.79-297.6-11.39-86.85,28.65-162.1,97.39-183,57.68-17.53,140.18,5.84,198.65,124,50.49,102,161.82,111.39,279.69,121.3,155.79,13.11,332.37,28,361.7,280.48a17.5,17.5,0,0,1-34.77,4c-26-224.07-173.61-236.49-329.86-249.63-122.36-10.29-248.88-20.94-308.12-140.66-48.78-98.58-113.14-119.41-157.12-106-52,15.8-82,75.41-72.85,144.94,7.36,56.13,35.33,195.25,135.79,274.7,69.12,54.66,103.57,115.58,140,180.07,42.63,75.38,91,160.81,206.15,260a17.5,17.5,0,0,1-11.42,30.76Z" fill="#000072"/><path d="M1708.56,1214.79s532.57,305.79,368.66,781.33c-171.44,497.37-723.17,484.44-930.69,368.09-334.62-187.61-421-654-197.83-1057.15" fill="#fff"/><g opacity="0.3"><path d="M2077.22,1996.12c-171.45,497.39-723.19,484.45-930.68,368.08-221.65-124.26-334.34-370.79-320.37-640.26,12.49,233.81,123.41,440.78,320.37,551.18,207.49,116.37,759.23,129.3,930.68-368.09,16.24-47.11,25.66-92.56,29.4-136.23C2112.7,1840.68,2104.84,1916,2077.22,1996.12Z" fill="#000072"/></g><path d="M1484.92,2447.57c-35.08,0-61.37-30.65-84.64-57.77-17-19.82-34.59-40.32-50.07-42.54-32.09-4.61-67.24,8.34-101.18,20.85-40.74,15-79.23,29.21-111.06,11.37-166.33-93.26-278.81-256.56-316.72-459.81-37.65-201.84,2.17-422.42,112.14-621.09a17.5,17.5,0,0,1,30.62,17C744.6,1711.93,828.54,2165.86,1155.09,2349c17.75,10,48.88-1.52,81.83-13.67,36.25-13.37,77.34-28.52,118.25-22.66,28.52,4.07,50.46,29.65,71.68,54.39,19.62,22.87,39.87,46.62,59.37,45.52,131.28-6.67,450-61.15,574.45-422.11,65.75-190.75,25.66-376.25-119.15-551.35-109.29-132.15-240.37-208.35-241.68-209.1a17.5,17.5,0,0,1,17.44-30.35c5.54,3.19,137.18,79.59,250.55,216.34,151.5,182.76,195.05,385.34,125.93,585.86-50.7,147.1-137.18,260.88-257,338.17-98.86,63.76-219.45,100.93-348.73,107.5C1487,2447.54,1485.94,2447.57,1484.92,2447.57Z" fill="#000072"/><path d="M999.69,469.33,782.61,877.19c-54.44-53.91-122.94-150-172.38-245.62C557,528.52,525.81,426,558.11,377.05c40.84-61.86,212-13.65,334.52,38.35C938,434.68,976.74,454.45,999.69,469.33Z" fill="#fff"/><g opacity="0.3"><path d="M999.69,469.33,782.61,877.19c-54.44-53.91-122.94-150-172.38-245.62a203.48,203.48,0,0,0,106.49-63.05C772,506.89,830.88,448.46,892.63,415.4,938,434.68,976.74,454.45,999.69,469.33Z" fill="#000072"/></g><path d="M782.6,894.68a17.42,17.42,0,0,1-12.31-5.06C710.53,830.45,637.66,725.46,589,628.37c-42.89-85.51-85.6-200.21-45.45-261C612,263.66,934.06,405.92,1009.2,454.66a17.5,17.5,0,1,1-19,29.36c-92.38-59.92-373.68-163.6-417.44-97.34-52.14,78.92,102.74,359.79,222.2,478.07a17.5,17.5,0,0,1-12.32,29.93Z" fill="#000072"/><path d="M2032.48,916.82c2.26,14-15.24,28.54-36.63,44.26-10,7.34-17.5,28.4-29.21,58.43-34,87-103.54,249.45-372.24,373l-85.15,36.18c-379.83,145.4-633.11,117.52-744.73,26.73-21.8-17.72-38.18-37.81-49.08-59.5-52.57-104.62-17-213-20.61-238.3C677.7,1038,600.48,700,834.29,489.42a649.13,649.13,0,0,1,55.16-44.52c106.62-77.11,217.35-109.07,285-117.48,18.39-97.09,102.91-307.06,178.65-310C1424.39,14.61,1516.52,164,1554,352.66c89.83,42.56,169.12,110.14,242.64,190.4,51.23,55.94,99.57,118,146.65,182,32.07,43.6,84.67,72.63,91.64,88.53,12.49,28.58-56.09,34.26-71.21,35.22-6.16,1,15.38,17.42,29,27.8C2013.68,892,2030.36,903.62,2032.48,916.82Z" fill="#fff"/><g opacity="0.3"><path d="M1966.64,1019.51c-34,87-103.54,249.45-372.24,373l-85.15,36.18c-379.83,145.4-633.11,117.52-744.73,26.73C1065.54,1492.28,1649.34,1450.09,1966.64,1019.51Z" fill="#000072"/></g><path d="M1796.67,543.05c-105.27,108-252.35,175-415.06,175-207.65,0-389.76-109.17-492.15-273.19,106.62-77.1,217.36-109.08,285-117.47,18.38-97.09,102.89-307.07,178.63-310C1424.4,14.59,1516.53,164,1554,352.68,1643.87,395.21,1723.17,462.82,1796.67,543.05Z" fill="#ff6f03"/><g opacity="0.6"><path d="M1408.56,41.45a60,60,0,0,0-22.13-3.52c-73.61,2.9-155.18,193.44-181.38,301.16a33.69,33.69,0,0,1-27,25.28C1108.94,376.49,1009,409.2,911.47,477.63q-11.57-16-22-32.73c106.62-77.11,217.35-109.07,285-117.48,18.39-97.09,102.91-307.06,178.65-310C1370.71,16.69,1389.58,25.29,1408.56,41.45Z" fill="#fff"/></g><path d="M1590.74,1384.57c55.89-30.25,109.85-63.28,159-102s93.64-82.89,129-133.75a567.64,567.64,0,0,0,46.82-80c6.76-14,12.86-28.29,18.8-42.84s11.45-29.35,18.05-44.85c3.51-7.82,6.77-15.71,13.33-24.81a51,51,0,0,1,6.29-7l2.16-1.8,1.07-.85.59-.43,2.35-1.72c3.12-2.29,6.16-4.58,9.07-6.87,5.78-4.54,11.24-9.35,14.67-13.59a17.49,17.49,0,0,0,2.93-4.62c.07-.82.13,1,0-.11-.29-1.61-4.62-6.79-9.86-11.13-5.32-4.54-11.56-9.16-17.94-13.86-6.73-4.87-13.12-9.92-19.64-15.11-3.27-2.65-6.54-5.34-10-8.47a76.59,76.59,0,0,1-5.57-5.57,30.36,30.36,0,0,1-4-5.61,21.33,21.33,0,0,1-1.53-3.46,14,14,0,0,1-.42-1.41c-.15-.63-.28-1.26-.38-1.9s-.17-1.28-.21-1.91a19.34,19.34,0,0,1,.83-6.53,18.6,18.6,0,0,1,1.68-3.74,19.6,19.6,0,0,1,2.54-3.39,18.66,18.66,0,0,1,2.46-2.13,19,19,0,0,1,2.75-1.67,14.65,14.65,0,0,1,2-.82,21.15,21.15,0,0,1,3.45-.91,13.83,13.83,0,0,1,1.56-.19h.25c14.7-.93,30-2.9,42.94-6.71a64,64,0,0,0,8.74-3.25,19.78,19.78,0,0,0,5.11-3.17c.33-.31.25-.33,0,.13a4.62,4.62,0,0,0-.39,1.93c0,.58.11.67,0,.33s.18.36,0,0a7.5,7.5,0,0,0-.59-.82,59.74,59.74,0,0,0-6.29-6.4c-2.62-2.37-5.48-4.8-8.45-7.25l-18.41-15a413.75,413.75,0,0,1-36.74-33.41,228.88,228.88,0,0,1-16.75-19.47L1917.56,719q-14.14-19-28.49-37.86-28.74-37.62-58.89-74c-40.33-48.26-83-94.4-129.81-135.67s-97.74-77.44-153.43-103.85a16.54,16.54,0,0,1-9.11-11.53l0-.2a859.56,859.56,0,0,0-24.54-92.67c-10-30.31-21-60.26-34.48-89s-28.75-56.54-47.09-81.51a239.58,239.58,0,0,0-30-34.15c-10.8-9.9-22.8-18.25-34.53-21.86a36.52,36.52,0,0,0-16.34-1.63c-4.94.7-10.5,3.07-16,6.52-11.1,7-21.66,17.78-31.16,29.52-19.07,23.77-34.85,51.55-49,79.94a844.27,844.27,0,0,0-37.15,88.22c-10.67,30.06-20.15,60.86-26.13,91.35a17.38,17.38,0,0,1-14.81,13.89c-43.41,5.64-86.66,17.83-128.09,33.79a668.74,668.74,0,0,0-118.8,60.36,631,631,0,0,0-54.21,38.83,575.71,575.71,0,0,0-49.56,44.14,449.48,449.48,0,0,0-77.57,106.09c-20.48,39-35.47,80.85-45.34,124.07s-14.9,87.7-16.22,132.38,1,89.62,5.81,134.41c2.39,22.4,5.37,44.78,8.74,67.18l10.57,67.78c.11.86.2,1.12.33,2.52l.29,3.53c0,1.9.08,4,0,5.65-.13,3.54-.43,6.64-.74,9.68-.64,6.07-1.4,11.8-2.14,17.46-1.48,11.3-2.86,22.34-3.86,33.36a385,385,0,0,0-.82,65.44,272.13,272.13,0,0,0,12.29,63,228.76,228.76,0,0,0,11.85,29.65,147.08,147.08,0,0,0,15.8,26.38c24.83,33.07,62.45,56.61,102.8,72.21,40.58,15.72,84.39,24.17,128.6,28s89.17,3,133.81-1c44.65-4.12,89.1-11.37,133.2-20.46q66.1-14,131.46-32.3l65.44-18.33c21.87-6.14,43.74-12.38,66-18l.08,0a8.81,8.81,0,0,1,6.18,16.37c-41,21.18-83.92,38.25-127.72,52.72a1206.51,1206.51,0,0,1-133.89,35.73,1098.49,1098.49,0,0,1-137.69,19.79,838.62,838.62,0,0,1-139.88.28c-46.68-4.12-93.51-13-138.21-30.29-22.3-8.68-44-19.48-64.25-33.24s-38.79-30.53-53.9-50.62A182.93,182.93,0,0,1,697.49,1399a263.62,263.62,0,0,1-13.55-33.93A306.82,306.82,0,0,1,670,1294a419.69,419.69,0,0,1,.86-71.39c1.06-11.73,2.52-23.35,4-34.7.74-5.66,1.48-11.25,2-16.53.28-2.63.51-5.23.58-7.4.09-1.22,0-2,0-2.91,0-.28-.06-.48-.07-.74,0,0-.15-1.17-.22-1.72L666.72,1091c-3.42-22.75-6.48-45.66-8.94-68.67-4.89-46-7.37-92.53-6-139.15s6.61-93.34,17.1-139.18,26.45-90.65,48.49-132.57A484.87,484.87,0,0,1,801,497.07a609.65,609.65,0,0,1,52.68-46.94,665.43,665.43,0,0,1,57.12-40.92A689.77,689.77,0,0,1,1036,345.8c43.8-16.71,89.14-29.4,136.37-35.49l-14.81,13.89c6.56-33.51,16.39-65.17,27.46-96.53a878.8,878.8,0,0,1,38.64-91.93c14.9-29.88,31.34-59.25,53.05-86.43,11-13.46,23.22-26.63,39.74-37.16,8.27-5.14,17.87-9.68,29.09-11.41a70.9,70.9,0,0,1,31.92,2.76C1396.94,9.7,1412,21,1425.2,32.92A274.07,274.07,0,0,1,1459.72,72c20.28,27.59,36.55,57.16,50.72,87.46,28.38,60.65,47.23,124.84,59.79,190l-9.14-11.73c59.25,28,112.83,66,161.36,108.65s92.47,90,133.65,139.09q30.83,36.87,60,74.93,14.63,19,28.9,38.18l14.07,18.9a196.26,196.26,0,0,0,14.36,16.56,380.94,380.94,0,0,0,33.82,30.51l18.54,15c3.16,2.6,6.37,5.29,9.65,8.24a89.62,89.62,0,0,1,10.31,10.63,42.14,42.14,0,0,1,2.84,4,32.68,32.68,0,0,1,2.71,5.34,33.56,33.56,0,0,1,2.49,11.9,30.36,30.36,0,0,1-2.9,13.45,34,34,0,0,1-6.95,9.7,52.69,52.69,0,0,1-14.66,9.92,96.81,96.81,0,0,1-13.53,5.13c-17.55,5.14-34,7.1-50.93,8.29l1.81-.2a13.77,13.77,0,0,0,2.72-.7c.58-.23.55-.21,1.61-.69a15.56,15.56,0,0,0,2.43-1.47,15.9,15.9,0,0,0,2.16-1.91,16.17,16.17,0,0,0,3.84-6.49,14.61,14.61,0,0,0,.65-2.89,15.93,15.93,0,0,0,.1-2.89c0-.52-.07-1-.14-1.55a13,13,0,0,0-.32-1.53l-.31-1.06a15.18,15.18,0,0,0-.9-2.1c-.83-1.42-.7-1-.45-.81.55.63,1.73,1.78,2.94,2.87,2.48,2.25,5.38,4.65,8.34,7,6,4.74,12.21,9.56,18.47,14,6.51,4.75,13.2,9.56,20.1,15.35a105.54,105.54,0,0,1,10.46,10.06A50.41,50.41,0,0,1,2048,906.8a34.53,34.53,0,0,1,.67,23.37,50.65,50.65,0,0,1-9,16.05c-6.66,8.2-13.46,13.84-20.12,19.31-3.34,2.69-6.66,5.25-10,7.73l-2.47,1.85-.61.46c-.08.06,0,.07-.09.1a.44.44,0,0,1-.15.12,17.69,17.69,0,0,0-1.61,1.94c-2.85,3.88-6.07,10.76-8.94,17.57-5.81,14-11.33,29.26-17.35,44.32s-12.52,30.21-19.64,45.06c-14.26,29.68-30.77,58.51-50.12,85.31-38.55,53.73-86.27,100.35-139.35,138.51s-111,68.66-171.27,92a8.76,8.76,0,0,1-7.34-15.88Z" fill="#000072"/><path d="M1439.3,1187.87c-2.57.93-11.65-3.6-5.36-28.31,7.84-30.75,19.74-61.17,27.84-59.39C1483,1104.83,1454.78,1182.3,1439.3,1187.87Z" fill="#ff67a0"/><path d="M1518.81,1163.75c-2.58.93-11.65-3.6-5.36-28.31,7.83-30.75,19.74-61.17,27.84-59.39C1562.52,1080.71,1534.29,1158.18,1518.81,1163.75Z" fill="#ff67a0"/><path d="M1598.32,1139.63c-2.58.93-11.66-3.6-5.36-28.31,7.83-30.74,19.73-61.17,27.84-59.39C1642,1056.59,1613.79,1134.06,1598.32,1139.63Z" fill="#ff67a0"/><path d="M790.56,1384.68c-2.57.92-11.65-3.61-5.36-28.32,7.83-30.74,19.74-61.17,27.84-59.39C834.27,1301.63,806,1379.1,790.56,1384.68Z" fill="#ff67a0"/><path d="M870.07,1360.56c-2.58.92-11.66-3.61-5.36-28.32,7.83-30.74,19.74-61.17,27.84-59.39C913.78,1277.52,885.55,1355,870.07,1360.56Z" fill="#ff67a0"/><path d="M949.57,1336.44c-2.57.93-11.65-3.61-5.36-28.31,7.84-30.75,19.74-61.18,27.84-59.4C993.28,1253.4,965.05,1330.86,949.57,1336.44Z" fill="#ff67a0"/><path d="M756.85,928.63c-9.41-8.54,13.09-137.12,103.29-135.06,33,.76,35.25,29.14,19.89,42.47-14.62,12.69-40.84,19.18-60,34.05C782.74,899.09,766.26,937.16,756.85,928.63Z" fill="#000072"/><path d="M1401.23,740.16c3.88-12.09-79.85-112.24-157-65.38-28.24,17.17-16,42.86,4,46.73,19,3.69,45-3.8,69-.47C1364.05,727.52,1397.34,752.26,1401.23,740.16Z" fill="#000072"/><path d="M1077.35,1235.8s-1.63,43.91,28.69,50c39.12,7.93,61.72-29.6,69.29-54.36,0,0,54,42.29,92.91,3.9,26.08-25.7-2.74-64.88-2.74-64.88" fill="#fff"/><path d="M821.52,1220.57a143.59,143.59,0,0,1-4.76-22,159.08,159.08,0,0,1-1.52-22.34c0-15.06,2-30.65,7.61-46a103.69,103.69,0,0,1,27.65-42.12,107.34,107.34,0,0,1,44.71-24.19c15.79-4.46,33.52-6,50.91-2.4a99,99,0,0,1,46.08,23.58c3,3,6.08,5.85,8.84,8.93,2.54,3.27,5.18,6.45,7.5,9.79,2.14,3.44,4.44,6.76,6.34,10.28,1.73,3.59,3.54,7.12,5.1,10.72a115.8,115.8,0,0,1,9.18,44.82,11.29,11.29,0,0,1-21.58,4.58l-.14-.31c-10.51-23.38-24.79-43.72-42.26-55.56-17.36-12.09-36.65-13.73-57.75-8.49a79.72,79.72,0,0,0-15,4.81,57.31,57.31,0,0,0-12.92,7.48,67.21,67.21,0,0,0-11,10.4,92.06,92.06,0,0,0-8.9,13.41c-10.54,19.6-15.19,45.91-16.28,70.9l0,1a11.13,11.13,0,0,1-21.78,2.71Z" fill="#000072"/><path d="M1529,1009.75c-15.08-20-33.52-39.23-53-49.71-19.69-10.85-39.21-11.82-59.55-3.79-20.46,7.47-35.09,19.81-42.42,39.23-3.61,9.64-5.56,20.59-6.36,32.26s-.17,24,.91,37.09l0,.54a11.45,11.45,0,0,1-20.49,7.93c-9.37-12.15-15.47-26.73-18.64-42.28a106.59,106.59,0,0,1,1.58-48.9,99.18,99.18,0,0,1,26-45.19c12.65-12.61,28.39-21,44-25.95a108.23,108.23,0,0,1,50.68-4.65c17.39,2.43,33.48,10,46.53,19.61a134.31,134.31,0,0,1,31.88,34.18,158.55,158.55,0,0,1,11,19.54,138.57,138.57,0,0,1,8,21.09,11.14,11.14,0,0,1-19.59,9.84Z" fill="#000072"/><path d="M1077.35,1235.8s-1.63,43.91,28.69,50c39.12,7.93,61.72-29.6,69.29-54.36,0,0,54,42.29,92.91,3.9,26.08-25.7-2.74-64.88-2.74-64.88s9.51-84.56-119.91-35.69S1077.35,1235.8,1077.35,1235.8Z" fill="#fff"/><path d="M1085.8,1236.12c2.09,11.26,6.07,23.64,12,30a17.25,17.25,0,0,0,9.51,5.61l1.33.33c.51.08,1.21.07,1.8.14l3.65.38c2.35-.23,4.74,0,6.94-.64,9-1.39,17-7.16,24.08-15.24a101.64,101.64,0,0,0,16.69-29.34h0l5-18,17.14,11c2,1.28,5,3.15,7.66,4.64,2.79,1.49,5.57,3,8.4,4.32a116.82,116.82,0,0,0,17.18,6.27c11.45,2.54,22.61,2.74,32.23-2.41l3.65-1.88c1.15-.79,2.24-1.73,3.38-2.57s2.42-1.69,3.31-2.58,1.67-1.78,2.57-2.65a24.29,24.29,0,0,0,5.57-13.3c1.2-10.49-3.18-24-9.28-34.72l-.34-.61a8.44,8.44,0,0,1,14-9.41,89.58,89.58,0,0,1,12.37,20.72,63.52,63.52,0,0,1,5.45,24.92A47.78,47.78,0,0,1,1282,1238c-1.45,1.86-2.94,3.71-4.46,5.53s-3.17,3-4.78,4.51-3.21,2.94-4.93,4.29l-5.62,3.61c-3.64,2.62-8,4-12.15,5.84a58.07,58.07,0,0,1-6.51,1.81,39.29,39.29,0,0,1-6.62,1.29l-6.66.64c-2.22.11-4.37-.1-6.56-.16-4.44,0-8.55-1-12.8-1.61a103.78,103.78,0,0,1-23.39-8.08,106.89,106.89,0,0,1-10.62-5.81,100.73,100.73,0,0,1-10.28-7.29l22.16-7h0a107,107,0,0,1-20.68,40.56,78.55,78.55,0,0,1-18.54,16,58.56,58.56,0,0,1-24.38,8.55c-4.35.73-8.65.38-12.94.29l-6.23-1c-1-.19-2-.32-3.13-.6l-3.45-1.09a30.06,30.06,0,0,1-6.69-2.83,39.49,39.49,0,0,1-11.36-8.84,34.31,34.31,0,0,1-4.21-5.45,57.17,57.17,0,0,1-8.39-23.11,74.68,74.68,0,0,1,.1-22.68,8.49,8.49,0,0,1,16.73-.28Z" fill="#000072"/><g opacity="0.3"><path d="M1268.23,1235.39c-38.93,38.39-92.91-3.9-92.91-3.9-7.54,24.77-30.17,62.3-69.29,54.36-19.82-4-22.46-35.17-24.37-48.63,4.25,5.9,11.88,17.47,18,21.83,23.72,16.92,51.07-49.7,58.62-74.43,0,0,69.13,70,100.81,25.44,8.82-12.4,2.92-29.27,1.34-40.28C1267.32,1182,1287.86,1216.06,1268.23,1235.39Z" fill="#000072"/></g><path d="M1161.38,1174.5a149.8,149.8,0,0,0,10.4,28.28c4.37,8.89,9.77,17,15.9,23.11a14.2,14.2,0,1,1-22,17.65l-.22-.36a112.07,112.07,0,0,1-13.61-33.34,165.19,165.19,0,0,1-3.14-16.8,161.27,161.27,0,0,1-1.39-17,7.1,7.1,0,0,1,14-2Z" fill="#000072"/><path d="M1222.71,1120.44c2.12,14.82-40,57.12-68.48,65.53-30.54,9-70.77-5.63-78.78-18.08-9.38-14.56,10.21-41.47,70.77-57.65C1195.76,1097,1220.39,1104.19,1222.71,1120.44Z" fill="#000072"/><g opacity="0.7"><path d="M1148.9,1123.54c2.42,3.77-6.53,12.64-15.09,15.73-4.86,1.75-22.39,7.84-25,3.71s.74-10,16.38-17.3C1139.37,1119.09,1146.47,1119.77,1148.9,1123.54Z" fill="#fff"/></g><path d="M1484.6,341.28s-21.17-1.41-50.79-3.33c-64.62-4.23-169.42-10.87-182.17-10.53,0,0,40.33-193.66,105.1-219,13.6-5.34,35.14,17.61,57,54.23a0,0,0,0,1,0,0C1442.15,209.94,1471.1,279.89,1484.6,341.28Z" fill="#ff67a0"/><g opacity="0.3"><path d="M1433.81,338c-64.62-4.23-169.42-10.87-182.17-10.53,0,0,40.33-193.66,105.1-219,13.6-5.34,35.14,17.61,57,54.23-74.88-49.08-98,67.32-82,101.62C1345,292.53,1391.47,318.93,1433.81,338Z" fill="#000072"/></g><path d="M1484.6,357.37c-.36,0-.71,0-1.07,0-85.88-5.73-218.54-14.21-231.45-13.8a16.1,16.1,0,0,1-16.19-19.37c4.32-20.7,44.15-203,115-230.73,5.69-2.22,14.9-3.58,26.53,2.63,43.82,23.42,103.08,151.4,122.92,241.75a16.1,16.1,0,0,1-15.72,19.56Zm-213-45.37c44.61,2.12,145.88,8.7,192.18,11.75-26.71-100.93-82.9-193.77-102.45-199.81C1324,140.48,1288.62,240.81,1271.61,312Z" fill="#000072"/><path d="M1942.91,2227.56c-83.26,93.42-255.42,180.83-403.85,198.07-640.86,74.51-708.14-495-845-631.63a321.79,321.79,0,0,1-28.84-33.1c-79.3-104.47-91.46-245.64-94.05-290.12-10.75-184.17,185.58-264.88,265.76-31.25,23,67,62.28,99.57,110.62,116.33,152.59,52.93,395.56-51.61,501.8,274.73q7.35,22.37,13.72,47.45l410.12,298.73Z" fill="#fff"/><g opacity="0.3"><path d="M1942.91,2227.56c-83.26,93.42-255.42,180.83-403.85,198.07-640.86,74.51-708.14-495-845-631.63a321.79,321.79,0,0,1-28.84-33.1c31.51,10.42,84.26,19.72,122.37-7.27,49.16-34.77,48.75-137.61,160-197.77,152.59,52.93,395.56-51.61,501.8,274.73-65.79,31.65-197.43,8.33-316.33,4.3-126.26,81.21-208.48,23.64-208.48,23.64s2,395.5,354.63,476.26c254.23,58.23,528.12-77,611.2-145.51Z" fill="#000072"/></g><ellipse cx="668.59" cy="1536.69" rx="57.08" ry="73.67" transform="matrix(1, -0.05, 0.05, 1, -81.06, 37.87)" fill="#ff67a0"/><ellipse cx="713.63" cy="1435.59" rx="19.76" ry="30.04" transform="translate(-75.59 40.13) rotate(-3.06)" fill="#ff67a0"/><ellipse cx="652.24" cy="1414.28" rx="22.89" ry="32.98" transform="translate(-74.55 36.82) rotate(-3.06)" fill="#ff67a0"/><ellipse cx="607.95" cy="1447.99" rx="16.03" ry="30.04" transform="translate(-76.41 34.51) rotate(-3.06)" fill="#ff67a0"/><path d="M1399.75,2423.79a942.36,942.36,0,0,0,146.86-14.09l17.85-3.37c5.91-1.39,11.79-2.94,17.71-4.21,11.92-2.11,23.69-5.26,35.49-8.11,5.89-1.49,11.7-3.36,17.55-5s11.74-3.23,17.47-5.31c11.53-4,23.18-7.57,34.5-12.13,45.6-17.32,89.89-38.55,131.26-64.26l15.49-9.67,15-10.29,7.51-5.15,7.26-5.46,14.5-10.94a471.49,471.49,0,0,0,52.64-48.93l.25-.27a16.09,16.09,0,0,1,23.79,21.68,501.51,501.51,0,0,1-56.68,52.75l-15.32,11.58-7.67,5.76-7.9,5.42-15.81,10.79-16.2,10.14c-43.28,26.88-89.27,48.92-136.79,67-11.79,4.74-24,8.52-36,12.66-6,2.15-12.19,3.69-18.27,5.55s-12.2,3.69-18.38,5.25l-18.59,4.58c-6.15,1.68-12.38,3.11-18.7,4.18s-12.64,2-19,3l-19.13,2c-25.39,2.55-50.48,3.46-75.76,3.8s-50.48-.68-75.58-2.75a8.06,8.06,0,0,1,.46-16.09Z" fill="#000072"/><path d="M1454.58,1880.2c-12.61-23-21.57-46.46-30.82-69.67a467.7,467.7,0,0,0-31.71-67.15c-24.41-42.64-57.82-79.12-99.18-103.13-41.28-24.41-89.74-35.45-139.5-40.64-49.88-5.67-101.52-5.48-154.51-13.27-26.41-4.1-53.45-10.42-79-22.58a182.87,182.87,0,0,1-36.19-22.61A175.82,175.82,0,0,1,854,1510.32a206.91,206.91,0,0,1-21.78-36c-1.63-3.09-2.82-6.32-4.25-9.47s-2.77-6.34-3.89-9.57l-6.8-18.34c-8.48-23.08-19.1-45.25-32.65-64.82-3.46-4.81-6.79-9.76-10.71-14.09-1.91-2.22-3.73-4.53-5.68-6.68l-6.13-6.13-3.05-3.07-3.28-2.72-6.54-5.46c-4.7-3-9.11-6.61-14.08-9-4.74-2.89-9.86-4.66-14.84-6.78l-7.72-2.18c-2.54-.88-5.21-.94-7.8-1.49a82.12,82.12,0,0,0-31.31,1.49,88.17,88.17,0,0,0-28.91,13.56,104.6,104.6,0,0,0-23.8,22.92,132.59,132.59,0,0,0-17.22,29.35c-2.58,5.13-4.09,10.8-6.17,16.19l-2.29,8.43a70.41,70.41,0,0,0-2,8.53l-1.65,8.64c-.49,2.89-.71,5.85-1.09,8.77a173.23,173.23,0,0,0-1.25,17.69c-.4,5.91.18,11.89.19,17.84.27,6.08.76,12.46,1.3,18.66a659.26,659.26,0,0,0,10.5,74.36c9.9,49,25.27,96.88,48.39,140.31,11.4,21.81,25.47,41.83,40.67,60.75L716,1790.19c4.8,5.23,8.76,10.79,13.15,16.19,3.87,5.57,7.93,11.09,11.61,16.71,14.73,22.52,27.22,45.62,39.24,68.71S803.31,1938,814.81,1961s23,45.78,35,68.23S874,2074,887.12,2095.64c25.9,43.52,55,84.83,87.8,122.78,4.14,4.69,8.43,9.26,12.63,13.9s8.43,9.26,12.93,13.6l13.25,13.28c4.53,4.3,9.21,8.43,13.8,12.66,9,8.64,19,16.18,28.52,24.22,4.85,3.92,10,7.46,15,11.22s9.91,7.57,15.2,10.86c41.43,27.82,85.3,51,131,74l.08,0a8.84,8.84,0,0,1-5.53,16.59c-52-9.33-101.36-31.88-145.29-61.55-5.66-3.48-10.87-7.6-16.27-11.45s-10.81-7.72-16-11.84c-10.2-8.45-20.83-16.45-30.48-25.52-4.9-4.45-9.89-8.81-14.72-13.34l-14.12-13.94c-4.79-4.58-9.29-9.4-13.75-14.28s-9-9.65-13.42-14.57c-70-79.37-121-172.14-166.59-264.49-23.17-46-45-92.71-71.73-134.1-3.35-5.14-6.94-10-10.38-15-3.75-4.56-7.25-9.54-11.17-13.77l-26.34-28.77c-17.07-21.13-32.52-43.51-44.93-67.38-25.13-47.61-41.24-98.84-51.55-150.67a694.87,694.87,0,0,1-10.83-78.47c-.55-6.62-1-13.07-1.31-19.84,0-6.91-.61-13.8-.15-20.73a207.19,207.19,0,0,1,1.53-20.79c.45-3.46.75-6.93,1.33-10.37l2-10.32a93.94,93.94,0,0,1,2.43-10.24l2.82-10.17c2.5-6.63,4.45-13.43,7.61-19.84a168.47,168.47,0,0,1,21.89-36.93,140.7,140.7,0,0,1,31.7-30.24,124.13,124.13,0,0,1,40.69-18.79,119.71,119.71,0,0,1,87.43,12.5c6.66,3.29,12.36,7.77,18.41,11.82l8.27,6.9,4.11,3.48,3.76,3.77,7.48,7.56c2.36,2.61,4.54,5.35,6.81,8,4.68,5.27,8.56,11,12.57,16.66,15.7,22.82,27.27,47.55,36.51,72.71l6.69,17.82c1,2.85,2.22,5.57,3.42,8.29s2.28,5.53,3.68,8.12a171.8,171.8,0,0,0,18.21,29.86,139.22,139.22,0,0,0,53,42.61c21,9.91,44.65,15.57,69,19.09,49,6.89,100.71,6.36,153.17,11.82,26.21,2.76,52.73,6.92,78.88,14.09a312.64,312.64,0,0,1,75.68,31.24,275.89,275.89,0,0,1,63.93,51.81c18.71,20,34.23,42.53,47.44,65.93a494.16,494.16,0,0,1,33.2,72.73c8.83,25,14.81,50.88,15.08,77.66a9,9,0,0,1-16.91,4.42Z" fill="#000072"/><path d="M1590.77,1763.83c-5.75,3-11.57,5.78-17.39,8.45-190.88,88-409.67,26.8-450.82,39.81-56.83,18-97.17,50.13-161.71,29.85-71.55-22.5-91.19-94.31-70.73-161.63,16.24-53.35,57.68-103.88,118.55-124.68,112.55-38.48,169.46-17,314.3-64.24C1332.49,1488.28,1590.77,1763.83,1590.77,1763.83Z" fill="#fff"/><g opacity="0.3"><path d="M1573.38,1772.28c-190.88,88-409.67,26.8-450.82,39.81-56.83,18-97.17,50.13-161.71,29.85-71.55-22.5-91.19-94.31-70.73-161.63,6.15,45,25.5,94.6,80.22,100.72,102.5,11.42,168.87-53.33,215.87-37C1292.64,1781,1505.32,1789,1573.38,1772.28Z" fill="#000072"/></g><path d="M1358.63,1497.62c-27.4,9.88-55.1,19.23-83.51,26.65a783.91,783.91,0,0,1-86.29,17c-28.92,4.14-57.45,6.77-84.93,11.1a510.83,510.83,0,0,0-80.48,19c-3.22,1.07-6.7,2-9.72,3.18l-8.94,3.44a164.57,164.57,0,0,0-17.13,8.53,160.59,160.59,0,0,0-30.88,22.69,176.62,176.62,0,0,0-43.16,63.37c-9.43,23.87-13.63,49.93-10.31,74.3s14.55,46.34,33,60.5a101.06,101.06,0,0,0,31.61,16.2,112,112,0,0,0,36.15,5.38c24.19-.22,48.78-10.35,75.59-21.2,6.69-2.68,13.53-5.43,20.59-8,3.49-1.3,7-2.56,10.67-3.72l5.4-1.79c2.11-.64,5.41-1.38,8-1.87l7-.75,6.28-.23c4.08-.06,8,0,11.8.16,7.6.32,15,.83,22.23,1.43,29,2.45,57.11,5.41,85.35,7.23,56.32,3.78,112.65,3.74,167.87-3.85,55.28-7.86,108.41-22.19,162-40.34a8.85,8.85,0,0,1,8,15.56c-24,17.24-51.08,30-79,39.68s-57,15.79-86.11,20.07c-58.29,8.49-117.16,8.93-175.08,5.52-28.95-1.64-57.83-4.43-85.94-6.57-7-.54-13.94-1-20.65-1.17-3.33-.1-6.6-.13-9.67-.06l-4.46.18-3.7.43-2.46.6-4.78,1.63c-3.19,1-6.38,2.2-9.59,3.44-6.4,2.35-12.83,5-19.41,7.69-13.12,5.37-26.72,11.19-41.5,16s-30.84,8.35-47.43,8.74a151.2,151.2,0,0,1-48.53-6.72,135.75,135.75,0,0,1-44.43-22.68,122.53,122.53,0,0,1-32.61-38.83,140,140,0,0,1-15-47.35c-4.31-32.53,1.29-64.78,12.84-94.05a215.67,215.67,0,0,1,52.89-77.44,200.1,200.1,0,0,1,38.22-28,203.92,203.92,0,0,1,21.32-10.55l11.11-4.27c3.68-1.36,7.12-2.32,10.69-3.49,28.2-9.25,57.59-15.6,86.7-19.81s57.75-6.59,85.57-10.31a745.08,745.08,0,0,0,82.38-15.33c27.14-6.65,53.94-15.1,80.58-24.18l.32-.11a17.5,17.5,0,0,1,11.58,33Z" fill="#000072"/><path d="M953.88,2003.53c-19.39,59.35-88,76.67-142.24,51.2a161.71,161.71,0,0,1-53.79-40.37c-53-60.43-49.6-145.06-49.6-145.06s29.43-30.18,102.91-34.33c3.45-.19,6.86-.22,10.27-.08C909.06,1838.23,972.23,1947.29,953.88,2003.53Z" fill="#fff"/><g opacity="0.3"><path d="M953.88,2003.53c-19.39,59.35-88,76.67-142.24,51.2a161.71,161.71,0,0,1-53.79-40.37c42.3,20,105.65,38.33,140.72-7.75,41.82-55-32.4-132.61-77.14-171.72C909.06,1838.23,972.23,1947.29,953.88,2003.53Z" fill="#000072"/></g><path d="M862.39,2083.58a137.45,137.45,0,0,1-58.17-13c-117.9-55.35-113.68-196-113.44-202a17.44,17.44,0,0,1,5-11.51c1.39-1.44,35.09-35.12,114.43-39.59,46.64-2.65,92.71,21,126.49,64.94,32.05,41.65,45.34,91.3,33.85,126.5a105.23,105.23,0,0,1-59,64.78A123.78,123.78,0,0,1,862.39,2083.58ZM725.77,1877.66c.75,27.79,9.62,121.94,93.32,161.24,25.46,11.95,54.78,12.95,78.47,2.71,13.53-5.86,31.4-18.16,39.67-43.51,7.76-23.78-3.89-62.56-28.31-94.3-26.63-34.6-62-53.34-96.79-51.34C763.41,1855.2,736.26,1870.31,725.77,1877.66Z" fill="#000072"/><path d="M979.68,1791.37a44.85,44.85,0,0,0-2.88,5.77,48.13,48.13,0,0,0-2.12,6.45,34.58,34.58,0,0,0-.72,12.78,29.52,29.52,0,0,0,3.94,11.52c.83,1.85,2.34,3.47,3.51,5.18,1.32,1.67,3,3.18,4.4,4.79l1.08,1.23a12.1,12.1,0,1,1-18.18,16c-.25-.29-.5-.61-.72-.92-1.93-2.67-4-5.17-5.67-8s-3.39-5.71-4.51-9a51,51,0,0,1-3.95-19.84,54,54,0,0,1,3.58-19.31,65.68,65.68,0,0,1,4.08-8.59,54.87,54.87,0,0,1,5.57-8.12,8,8,0,0,1,13.15,9.08Z" fill="#000072"/><path d="M934.58,1754.34a88,88,0,0,0-8,13.33,78,78,0,0,0-5.38,14.41,52.45,52.45,0,0,0-1.52,14.2,39.17,39.17,0,0,0,2.94,12.73l.21.54a12.1,12.1,0,1,1-22.57,8.74c-.14-.38-.27-.78-.38-1.16a62.33,62.33,0,0,1-2.33-21.38,73.39,73.39,0,0,1,4.5-19.85,97.28,97.28,0,0,1,8.79-17.2,103.8,103.8,0,0,1,11.77-15.12,8,8,0,0,1,12.31,10.32Z" fill="#000072"/><path d="M927.22,1699a69.43,69.43,0,0,0-13.87,8.86,56.2,56.2,0,0,0-10.89,11.85,39.09,39.09,0,0,0-6,13.77c-1.32,4.73-1,9.79-.71,14.75l.06,1a12.1,12.1,0,0,1-24.15,1.52c0-.36,0-.73,0-1.08.2-7.59.84-15.33,3.63-22.6a60.12,60.12,0,0,1,11.22-19.61,75.36,75.36,0,0,1,16.23-14.27,84,84,0,0,1,19.13-9.38,8,8,0,0,1,6,14.88Z" fill="#000072"/><path d="M860.13,1899.28a77.82,77.82,0,0,0,13.33-5.48,38.47,38.47,0,0,0,10.48-7.74c2.59-2.86,3.53-5.49,3.44-7.67.13-2.16-1.61-5.23-3.4-8.36l-.75-1.34A12.12,12.12,0,1,1,904.94,1858l2.1,5a22.09,22.09,0,0,1,1.67,5.37c.37,2,.78,3.88,1,5.88,0,2.12-.12,4.25-.29,6.34-1.22,8.68-6.42,15.75-11.76,20.14a58,58,0,0,1-16.83,9.55,92.88,92.88,0,0,1-17.47,4.7,8,8,0,0,1-3.72-15.62Z" fill="#000072"/><path d="M882.75,1963.27a120.65,120.65,0,0,0,18.68-5,79.19,79.19,0,0,0,16.77-8.09c4.88-3.25,8.9-7.11,10.85-11.1s2.31-7.9,1.37-12.53a12.09,12.09,0,1,1,23.69-4.82,11,11,0,0,1,.19,1.24,47.06,47.06,0,0,1-.66,14.3,40.37,40.37,0,0,1-5.71,13.37c-5.3,8-12.55,13.13-19.6,16.93a98.46,98.46,0,0,1-21.71,8.05,135.85,135.85,0,0,1-22.2,3.65,8,8,0,0,1-2.1-15.93Z" fill="#000072"/><path d="M889.4,2023.42a105.38,105.38,0,0,0,18.78-4,80,80,0,0,0,17.26-7.39,50.69,50.69,0,0,0,13.07-11,37.24,37.24,0,0,0,6.43-14l.15-.61a12.09,12.09,0,1,1,23.48,5.77c-.07.3-.17.62-.26.9A60,60,0,0,1,955,2015.82,71.76,71.76,0,0,1,934.68,2030a99,99,0,0,1-22.1,7.08,120.34,120.34,0,0,1-22.68,2.48,8,8,0,0,1-1-16Z" fill="#000072"/><g opacity="0.3"><path d="M1465,1876.81c-.07-1.75-2.92.82-1.43,1.71s3.28-.5,4.47-1.77c39.32-42.28,93.41-71,124.35-119.7a266.58,266.58,0,0,1-150.7,62.4,111,111,0,0,1,25.86,40.49c2,5.44,2.06,13.67-3.63,14.73" fill="#000072"/></g></g></g></svg>