<svg xmlns="http://www.w3.org/2000/svg" xmlns:xlink="http://www.w3.org/1999/xlink" viewBox="0 0 908.41 673.32"><defs><clipPath id="clip-path" transform="translate(132.68 77.74)"><rect width="750" height="500" fill="none"/></clipPath></defs><g id="OBJECTS"><g clip-path="url(#clip-path)"><line x1="83.47" y1="0.5" x2="46.31" y2="0.5" fill="none" stroke="#606060" stroke-miterlimit="10"/><path d="M249.24.92l26.23,26.22a46.56,46.56,0,0,0,65.84,0l15-15a8.12,8.12,0,0,1,11.48,0l.15.14a8.38,8.38,0,0,1,0,11.86L320.32,71.79a42.47,42.47,0,0,0,0,60.05h0a42.45,42.45,0,0,0,60.05,0L525.86-13.64l32,4.37-53,53a59.18,59.18,0,0,0,0,83.71h0a59.2,59.2,0,0,0,83.71,0l81-81a9,9,0,0,1,12.74,0h0a9,9,0,0,1,0,12.73L562.44,179.08a33.45,33.45,0,0,0,0,47.32h0a33.46,33.46,0,0,0,47.31,0l83.08-83.08a9.65,9.65,0,0,1,13.65,0h0a9.67,9.67,0,0,1,0,13.65L705,158.42a70.66,70.66,0,0,0,0,99.92l62,62V-39.08" transform="translate(132.68 77.74)" fill="#b8e3db"/><circle cx="124.49" cy="0.21" r="64.93" transform="translate(245.76 201.91) rotate(-84.84)" fill="#ffcf54"/><circle cx="790.38" cy="577.88" r="40.74" fill="#ffcf54"/><path d="M232.16,43.57a37.32,37.32,0,1,0,37.31,37.31A37.36,37.36,0,0,0,232.16,43.57Zm0,67.27a30,30,0,1,1,30-30A30,30,0,0,1,232.16,110.84Z" transform="translate(132.68 77.74)" fill="#b8e3db"/><circle cx="692.96" cy="294.53" r="17.56" transform="translate(72.72 365.34) rotate(-22.5)" fill="#ffcf54"/><circle cx="348.92" cy="410.7" r="8.42" fill="#ffcf54"/><circle cx="366.94" cy="392.67" r="8.42" fill="#ffcf54"/><circle cx="3.69" cy="202.45" r="17.56" transform="translate(-9.39 139.64) rotate(-45)" fill="#ffcf54"/><path d="M-14.19,314.22l82-82a47.05,47.05,0,0,1,66.55,0h0a47.05,47.05,0,0,1,0,66.55L97,336.13a20.65,20.65,0,0,0,0,29.21h0a20.65,20.65,0,0,0,29.21,0l8.12-8.11a42.46,42.46,0,0,1,60.06,0h0a42.48,42.48,0,0,1,0,60.06l-33.28,33.27a9.2,9.2,0,0,0,0,13h0a9.2,9.2,0,0,0,13,0l81.15-81.16a36.74,36.74,0,0,1,51.95,0h0a36.73,36.73,0,0,1,0,51.94l-21.92,21.91a8,8,0,0,0,0,11.36h0a8,8,0,0,0,11.37,0l1.81-1.81a98.44,98.44,0,0,1,139.21,0l37.52,37.52H-132.68S-6.89,321.52-14.19,314.22Z" transform="translate(132.68 77.74)" fill="#cef0e6"/><path d="M585.05,409.49h0a4.51,4.51,0,0,1,6.38,0L605,423.05a4.5,4.5,0,0,1,0,6.37h0a4.5,4.5,0,0,1-6.37,0l-13.57-13.56A4.52,4.52,0,0,1,585.05,409.49Z" transform="translate(132.68 77.74)" fill="#31346b"/><path d="M605,409.49h0a4.5,4.5,0,0,1,0,6.37l-13.56,13.56a4.51,4.51,0,0,1-6.38,0h0a4.52,4.52,0,0,1,0-6.37l13.57-13.56A4.5,4.5,0,0,1,605,409.49Z" transform="translate(132.68 77.74)" fill="#31346b"/><path d="M207,194.19h0a2.93,2.93,0,0,1,4.14,0L220,203a2.93,2.93,0,0,1,0,4.15h0a2.93,2.93,0,0,1-4.14,0L207,198.33A2.92,2.92,0,0,1,207,194.19Z" transform="translate(132.68 77.74)" fill="#31346b"/><path d="M220,194.19h0a2.92,2.92,0,0,1,0,4.14l-8.82,8.83a2.93,2.93,0,0,1-4.14,0h0a2.93,2.93,0,0,1,0-4.15l8.82-8.82A2.93,2.93,0,0,1,220,194.19Z" transform="translate(132.68 77.74)" fill="#31346b"/><circle cx="533.03" cy="189.78" r="19.08" fill="#31346b"/><circle cx="105.85" cy="653.47" r="7.51" fill="#31346b"/><circle cx="187.84" cy="181.66" r="10.59" fill="#31346b"/><circle cx="627.8" cy="243.38" r="3.16" fill="#31346b"/><circle cx="627.8" cy="259.87" r="3.16" fill="#31346b"/><circle cx="643.86" cy="243.38" r="3.16" fill="#31346b"/><circle cx="643.86" cy="259.87" r="3.16" fill="#31346b"/><circle cx="178.36" cy="213.61" r="3.16" fill="#31346b"/><circle cx="178.36" cy="230.09" r="3.16" fill="#31346b"/><circle cx="194.42" cy="213.61" r="3.16" fill="#31346b"/><circle cx="194.42" cy="230.09" r="3.16" fill="#31346b"/><circle cx="145.85" cy="213.61" r="3.16" fill="#31346b"/><circle cx="145.85" cy="230.09" r="3.16" fill="#31346b"/><circle cx="161.91" cy="213.61" r="3.16" fill="#31346b"/><circle cx="161.91" cy="230.09" r="3.16" fill="#31346b"/><circle cx="789.04" cy="488.81" r="3.16" fill="#31346b"/><path d="M659.52,427.56a3.16,3.16,0,1,1-3.16-3.16A3.15,3.15,0,0,1,659.52,427.56Z" transform="translate(132.68 77.74)" fill="#31346b"/><circle cx="805.1" cy="488.81" r="3.16" fill="#31346b"/><path d="M675.58,427.56a3.16,3.16,0,1,1-3.16-3.16A3.16,3.16,0,0,1,675.58,427.56Z" transform="translate(132.68 77.74)" fill="#31346b"/><circle cx="756.54" cy="488.81" r="3.16" fill="#31346b"/><path d="M627,427.56a3.16,3.16,0,1,1-3.15-3.16A3.15,3.15,0,0,1,627,427.56Z" transform="translate(132.68 77.74)" fill="#31346b"/><circle cx="772.6" cy="488.81" r="3.16" fill="#31346b"/><path d="M643.07,427.56a3.16,3.16,0,1,1-3.15-3.16A3.15,3.15,0,0,1,643.07,427.56Z" transform="translate(132.68 77.74)" fill="#31346b"/><circle cx="853.99" cy="488.81" r="3.16" fill="#31346b"/><path d="M724.47,427.56a3.16,3.16,0,1,1-3.16-3.16A3.15,3.15,0,0,1,724.47,427.56Z" transform="translate(132.68 77.74)" fill="#31346b"/><path d="M740.53,411.07a3.16,3.16,0,1,1-3.16-3.16A3.16,3.16,0,0,1,740.53,411.07Z" transform="translate(132.68 77.74)" fill="#31346b"/><path d="M740.53,427.56a3.16,3.16,0,1,1-3.16-3.16A3.15,3.15,0,0,1,740.53,427.56Z" transform="translate(132.68 77.74)" fill="#31346b"/><circle cx="821.49" cy="488.81" r="3.16" fill="#31346b"/><path d="M692,427.56a3.16,3.16,0,1,1-3.15-3.16A3.15,3.15,0,0,1,692,427.56Z" transform="translate(132.68 77.74)" fill="#31346b"/><circle cx="837.55" cy="488.81" r="3.16" fill="#31346b"/><path d="M708,427.56a3.16,3.16,0,1,1-3.15-3.16A3.15,3.15,0,0,1,708,427.56Z" transform="translate(132.68 77.74)" fill="#31346b"/><circle cx="365.16" cy="482.16" r="7.79" fill="#31346b"/><circle cx="785.11" cy="262.11" r="7.79" fill="#31346b"/><line x1="778.58" y1="213.36" x2="905.76" y2="86.18" fill="none" stroke="#fff" stroke-linecap="round" stroke-miterlimit="10" stroke-width="3"/><line x1="551.31" y1="135.36" x2="617.9" y2="68.77" fill="none" stroke="#fff" stroke-linecap="round" stroke-miterlimit="10" stroke-width="3"/><line x1="119.21" y1="494.78" x2="248.46" y2="365.52" fill="none" stroke="#fff" stroke-linecap="round" stroke-miterlimit="10" stroke-width="3"/><line x1="259.74" y1="653.19" x2="375.59" y2="537.33" fill="none" stroke="#fff" stroke-linecap="round" stroke-miterlimit="10" stroke-width="3"/><line x1="55.73" y1="521.65" x2="171.58" y2="405.8" fill="none" stroke="#fff" stroke-linecap="round" stroke-miterlimit="10" stroke-width="3"/><circle cx="296.28" cy="277.95" r="15.75" fill="#cef0e6"/><circle cx="588.77" cy="197.92" r="8.32" fill="#b8e3db"/><circle cx="853.45" cy="202.95" r="8.32" fill="#f7f3ea"/><circle cx="206.41" cy="469.81" r="20.45" fill="#fff"/><path d="M482.42,430.29a70,70,0,1,0,69.95,69.95A70,70,0,0,0,482.42,430.29Zm0,126.12a56.17,56.17,0,1,1,56.17-56.17A56.18,56.18,0,0,1,482.42,556.41Z" transform="translate(132.68 77.74)" fill="#b8e3db"/><path d="M30.4,507.35c1.41-.47,54.86-54.51,75.31-75.21a11.11,11.11,0,0,1,15.75-.05h0a11.11,11.11,0,0,1,0,15.71l-16.8,16.8a5.56,5.56,0,0,0,0,7.88h0a5.55,5.55,0,0,0,7.87,0l7-7a12.16,12.16,0,0,1,17.21,0h0a12.17,12.17,0,0,1,0,17.21h0a5.17,5.17,0,0,0,0,7.3l19.7,19.69H28.65" transform="translate(132.68 77.74)" fill="#b8e3db"/><path d="M630.91-9.2,570,51.69a14.46,14.46,0,0,0,0,20.47h0a14.47,14.47,0,0,0,20.46,0L623,39.61a5,5,0,0,1,7,0h0a5,5,0,0,1,0,7L619,57.73a7.82,7.82,0,0,0,0,11.07h0a7.82,7.82,0,0,0,11.07,0L659.91,39a21.14,21.14,0,0,1,29.9,0l.82.82,58-58S630.91-9.87,630.91-9.2Z" transform="translate(132.68 77.74)" fill="#cef0e6"/><line x1="431.92" y1="593.34" x2="576.6" y2="448.66" fill="none" stroke="#31346b" stroke-linecap="round" stroke-miterlimit="10" stroke-width="3"/><line x1="40.59" y1="671.82" x2="185.26" y2="527.14" fill="none" stroke="#31346b" stroke-linecap="round" stroke-miterlimit="10" stroke-width="3"/><line x1="597.69" y1="37.29" x2="480.51" y2="154.47" fill="none" stroke="#31346b" stroke-linecap="round" stroke-miterlimit="10" stroke-width="3"/><line x1="355.18" y1="170.25" x2="325.79" y2="199.64" fill="none" stroke="#31346b" stroke-linecap="round" stroke-miterlimit="10" stroke-width="3"/><line x1="523.39" y1="533.96" x2="551.6" y2="505.75" fill="none" stroke="#31346b" stroke-linecap="round" stroke-miterlimit="10" stroke-width="3"/><path d="M694.41,43.42,689.81,39s49.27-55.73,50.43-56.88,35.49,3.74,35.49,3.74L721,42.94A18.73,18.73,0,0,1,694.41,43.42Z" transform="translate(132.68 77.74)" fill="#cef0e6"/></g></g></svg>