<svg xmlns="http://www.w3.org/2000/svg" viewBox="0 0 607.87 284.85">
  <g>
    <g>
      <path
        d="M118.49,95.75l82-82a47.07,47.07,0,0,1,66.55,0h0a47.05,47.05,0,0,1,0,66.55l-37.33,37.34a20.65,20.65,0,0,0,0,29.21h0a20.65,20.65,0,0,0,29.21,0l8.12-8.11a42.46,42.46,0,0,1,60.06,0h0a42.47,42.47,0,0,1,0,60L293.79,232.1a9.19,9.19,0,0,0,0,13h0a9.18,9.18,0,0,0,13,0l81.16-81.15a36.71,36.71,0,0,1,51.94,0h0a36.73,36.73,0,0,1,0,51.94L418,237.78a8,8,0,0,0,0,11.36h0a8,8,0,0,0,11.37,0l1.81-1.82a98.44,98.44,0,0,1,139.21,0l37.52,37.53H0S125.79,103.06,118.49,95.75Z"
        fill="#A5E4DC" />
    </g>
  </g>
</svg>