<svg xmlns="http://www.w3.org/2000/svg" viewBox="0 0 517.74 359.38">
  <g id="图层_2" data-name="图层 2">
    <g id="OBJECTS">
      <path
        d="M0,40,26.22,66.23a46.55,46.55,0,0,0,65.84,0l15-15a8.13,8.13,0,0,1,11.49,0l.14.15a8.37,8.37,0,0,1,0,11.86L71.08,110.87a42.46,42.46,0,0,0,0,60.06h0a42.47,42.47,0,0,0,60.05,0L276.61,25.44l32,4.37-53,53a59.18,59.18,0,0,0,0,83.71h0a59.18,59.18,0,0,0,83.71,0l81-81a9,9,0,0,1,12.74,0h0a9,9,0,0,1,0,12.74L313.19,218.16a33.47,33.47,0,0,0,0,47.32h0a33.45,33.45,0,0,0,47.32,0l83.07-83.08a9.67,9.67,0,0,1,13.65,0h0a9.65,9.65,0,0,1,0,13.65l-1.45,1.46a70.65,70.65,0,0,0,0,99.91l62,62V0"
        fill="#A5E4DC" />
    </g>
  </g>
</svg>