<svg xmlns="http://www.w3.org/2000/svg" viewBox="0 0 216.88 251.53">
  <g id="图层_2" data-name="图层 2">
    <g id="OBJECTS">
      <path
        d="M169.54,212.23s22.39,6.35,33,6.78l12.71,5.8a2.78,2.78,0,0,1,1,4.35h0a2.78,2.78,0,0,1-2.77.89l-11.32-2.72-28.49.22Z"
        fill="#f2c7c4" />
      <path
        d="M162,225.67c1.23,6.9,16.93,4.39,22.37,4.39,4.11,0,11.91-.17,15.49-.25a2.69,2.69,0,0,0,2.49-1.82h0a2.71,2.71,0,0,0-2.14-3.56l-12.71-2-19.42-10.59Z"
        fill="#f2c7c4" />
      <path d="M176.29,214.29l26.25,3.06,8,7.63a2.67,2.67,0,0,1,.24,3.6h0a2.66,2.66,0,0,1-3.58.54l-6.93-4.69-24,.58Z"
        fill="#f2c7c4" />
      <path d="M160.73,77.13c10.11,39.94,14.54,120.56,14.54,120.56l-29.69-1.4-3.1-111.54Z" fill="#f2c7c4" />
      <path d="M67.63,73.58C52.78,114.65,57,154.16,37.45,217.32l17.39,8.35c23.59-41.53,36.32-140,36.32-140Z"
        fill="#f2c7c4" />
      <path
        d="M47.34,212.23S25,218.58,14.34,219l-12.71,5.8a2.78,2.78,0,0,0-.95,4.35h0a2.77,2.77,0,0,0,2.76.89l11.32-2.72,28.5.22Z"
        fill="#f2c7c4" />
      <path
        d="M54.84,225.67c-1.23,6.9-16.92,4.39-22.36,4.39-4.11,0-11.92-.17-15.5-.25A2.69,2.69,0,0,1,14.49,228h0a2.71,2.71,0,0,1,2.14-3.56l12.72-2,19.41-10.59Z"
        fill="#f2c7c4" />
      <path d="M40.59,214.29l-26.25,3.06-8,7.63a2.68,2.68,0,0,0-.24,3.6h0a2.67,2.67,0,0,0,3.58.54l6.93-4.69,24,.58Z"
        fill="#f2c7c4" />
      <path d="M78.44,146.26l-13.9,46.63s-2.34,37.19,43.2,36.35,53-28.61,53-28.61L141,146.26Z" fill="#345870" />
      <path
        d="M69.91,176.2c-.62,3.19-1,4.6-1,4.6s34.74,17,88.29-.94l-.51-6.14-3.56-41.93h0l2-.69.38-.13,22.1-7.7q-1.31-4.87-2.54-9.29c-6.81-24.4-12-38.74-17.32-43.43-4.55-4-12-3.1-22.54,1.27a220.91,220.91,0,0,0-21.29,10.65,148.16,148.16,0,0,0-18.2-10c-9-4.09-19.19-7.27-25.33-4.48-8,3.63-15,30.13-18.22,44.38-1.21,5.38-1.89,9-1.89,9l23.34,6.14,2.63.69.31.08.1,0C73.77,154.58,71.23,169.4,69.91,176.2Z"
        fill="#69a0e1" />
      <path
        d="M68.93,180.8s34.74,17,88.29-.94l-.51-6.14c-27,5-68.73,3.48-86.8,2.48C69.29,179.39,68.93,180.8,68.93,180.8Z"
        fill="#5186c7" />
      <path d="M154,123.42l1.16,7.67.38-.13,22.1-7.7q-1.31-4.87-2.54-9.29Z" fill="#5186c7" />
      <path
        d="M94.72,78.89a20.87,20.87,0,1,0,40.51-7.08,220.91,220.91,0,0,0-21.29,10.65,148.16,148.16,0,0,0-18.2-10A20.42,20.42,0,0,0,94.72,78.89Z"
        fill="#5186c7" />
      <path
        d="M97.52,151.59c1.49-.92,3.83-.63,5.55-.78s3.67-.37,5.5-.63a110.69,110.69,0,0,0,11-2.15,101,101,0,0,0,21.06-7.55c1.63-.81,3.05,1.61,1.41,2.49a106.18,106.18,0,0,1-21.47,8.87,96.67,96.67,0,0,1-11.39,2.46q-2.79.44-5.6.7c-1.9.19-4.26.76-6-.1A1.92,1.92,0,0,1,97.52,151.59Z"
        fill="#5186c7" />
      <path
        d="M97.59,140.68c1.6-.6,3.68.14,5.34.3,1.84.18,3.69.27,5.54.27a51,51,0,0,0,10.81-1.08,1.35,1.35,0,0,1,.68,2.61,52.81,52.81,0,0,1-11.49,2.14,45.82,45.82,0,0,1-5.74.07c-2-.11-4.35,0-6-1.33C95.62,142.72,96.47,141.09,97.59,140.68Z"
        fill="#5186c7" />
      <path d="M99,185.19c-7.19-9.42-53-53.9-66.83-32.28S36,206.23,67.7,221.51,126.64,221.34,99,185.19Z"
        fill="#345870" />
      <path
        d="M30.49,169.84c4.6,10.6,12.19,19.54,20.59,27.33a172.49,172.49,0,0,0,14,11.51c4.64,3.49,9.32,7,14.14,10.2s10,5.87,15.89,6.09c1.3.05,1.15,1.87-.07,2-5.35.44-10.48-2-14.91-4.76-4.93-3.05-9.58-6.62-14.24-10.06-9.73-7.21-19.22-15-26.54-24.69a66.69,66.69,0,0,1-9.51-17.23C29.63,169.74,30.28,169.37,30.49,169.84Z"
        fill="#3a6885" />
      <path
        d="M84.87,170.42a76.06,76.06,0,0,1,20.66,23.43,79.68,79.68,0,0,1,3.82,8c.55,1.36-1.53,2.3-2.08.94A81.89,81.89,0,0,0,90.81,177a69.55,69.55,0,0,0-6.37-6C84.08,170.73,84.49,170.13,84.87,170.42Z"
        fill="#3a6885" />
      <path d="M167.49,247.52,180.88,213a53.5,53.5,0,0,0-8.76-1.8l-17.4,33C165,248.34,167.49,247.52,167.49,247.52Z"
        fill="#fff" />
      <path
        d="M158.79,241.74a20.82,20.82,0,0,1-4.07,2.53c-1.88-.75-4.32-1.81-7.33-3.09l-9.82-4.2c-4-1.73-8.65-3.67-13.78-5.77a59.48,59.48,0,0,1,2.69-19.32h0c10.37,2.06,26.91-.44,38.83-.87a31,31,0,0,1,6.79.23C173.51,213,170.25,232.77,158.79,241.74Z"
        fill="#3a6885" />
      <path d="M106.78,205.26c-1.53-.72-3.17-1.5-4.93-2.39Q104.49,204.21,106.78,205.26Z" fill="#e0954a" />
      <path d="M91.24,197.33h0l1.69.9C92.38,197.93,91.81,197.63,91.24,197.33Z" fill="#e0954a" />
      <path
        d="M126.48,211.89a59.48,59.48,0,0,0-2.69,19.32c-8.77-3.6-20.19-4.66-31.79-9l-.76-24.9,1.68.9c1.11.6,2.19,1.16,3.22,1.7s2,1.05,3,1.54h0c.94.49,1.85,1,2.73,1.39h0c1.76.89,3.39,1.69,4.93,2.39,2.68,1.26,5,2.27,7.26,3.11.62.24,1.23.47,1.83.68.31.1.62.22.92.3.59.22,1.18.4,1.76.58.29.09.58.18.89.26.57.17,1.14.34,1.72.49C122.9,211.13,124.64,211.53,126.48,211.89Z"
        fill="#f2c7c4" />
      <polygon points="92.01 222.24 91.24 197.34 91.24 197.33 91.23 197.33 92.01 222.24" fill="#f2c7c4" />
      <path d="M147.53,241.26c-2.88-1.23-6.26-2.69-10.1-4.32C140.56,235.88,146.18,237.07,147.53,241.26Z" fill="#fff" />
      <path d="M172.12,211.25c3,4.41-.39,23.69-13.32,30.49C154.14,228.12,159.32,210.49,172.12,211.25Z" fill="#fff" />
      <path
        d="M127.34,203.24a2.88,2.88,0,0,0-2.51,2.5c-.63,3,1.55,6.67,3.32,9a18.24,18.24,0,0,0,6.3,5.29,13.84,13.84,0,0,0-5.56,1.43,13.37,13.37,0,0,0-6.23,6.18c-1.12,2.51-.72,6.48,2.2,7.71s5.71-1.39,7.5-3.31a19.85,19.85,0,0,0,4.79-8.67,34.75,34.75,0,0,0,.15,6.68.25.25,0,1,0,.49,0,41,41,0,0,1,.5-7.36,34,34,0,0,1,.7-3.51,25.72,25.72,0,0,0,.94-3.36c0-.55-.65-1-1-.53a8.72,8.72,0,0,0-1,2.86,20,20,0,0,0-7.17-13.48A5.48,5.48,0,0,0,127.34,203.24Zm5.54,25.95c-1.46,2.05-3.62,4.61-6.15,5a2.83,2.83,0,0,1-3.08-1.81,5.08,5.08,0,0,1,.24-4.27,12.57,12.57,0,0,1,5.5-5.33,14.75,14.75,0,0,1,7-1.61.05.05,0,0,1,0,0A26.92,26.92,0,0,1,132.88,229.19Zm-2.26-23.14a18.43,18.43,0,0,1,4.51,6.2,22.64,22.64,0,0,1,1.82,7.52l-.11-.07a17.57,17.57,0,0,1-6.62-4.58,16.73,16.73,0,0,1-4-7.19c-.31-1.37-.06-3.2,1.41-3.33A4.54,4.54,0,0,1,130.62,206.05Z"
        fill="#fff" />
      <path
        d="M142.87,217.27a26.75,26.75,0,0,0-.1,14.64c.1.38.69.28.6-.11a30.77,30.77,0,0,1-.64-7.14,30.12,30.12,0,0,1,1.08-6.87.65.65,0,0,0-.17-.67.59.59,0,0,0-.23-.13A.46.46,0,0,0,142.87,217.27Z"
        fill="#fff" />
      <path
        d="M148.84,217.18a37.45,37.45,0,0,0-2.91,14.44c0,.58.79.81.83.21a50.23,50.23,0,0,1,1-7.18,53.33,53.33,0,0,1,2.11-6.89C150.13,217.05,149.14,216.5,148.84,217.18Z"
        fill="#fff" />
      <path
        d="M154.09,217.33l-.16,0c-.19,0-.28.25-.32.43-.29,1.23-.71,2.4-1,3.63s-.48,2.48-.65,3.75a42.38,42.38,0,0,0-.28,7.57c0,.5.8.59.8.09a55,55,0,0,1,.5-7.4c.16-1.18.37-2.33.63-3.48a24.3,24.3,0,0,1,1-3.75.66.66,0,0,0-.07-.59l-.08-.13A.34.34,0,0,0,154.09,217.33Z"
        fill="#fff" />
      <polygon points="90.97 224.62 107.08 228.49 114.61 205.74 87.52 189.91 90.97 224.62" fill="#345870" />
      <path d="M170.75,167.39c-11.43,3.13-69.85,28.84-55,49.82s50.84,16.52,76.91-7.13S214.62,155.39,170.75,167.39Z"
        fill="#345870" />
      <path d="M63.17,251.48l-14.61-34a53.07,53.07,0,0,1,8.69-2.11l18.56,32.38C65.65,252.22,63.17,251.48,63.17,251.48Z"
        fill="#fff" />
      <path
        d="M102.88,214.42a59.42,59.42,0,0,1,3.37,19.21c-5,2.28-9.58,4.38-13.56,6.25L83,244.43c-3,1.39-5.37,2.53-7.22,3.35a21.14,21.14,0,0,1-4.16-2.38c-11.77-8.56-15.73-28.25-14.4-30a30.94,30.94,0,0,1,6.79-.47c11.92,0,28.54,1.91,38.83-.52Z"
        fill="#3a6885" />
      <path d="M122.33,207.09c1.51-.77,3.11-1.61,4.84-2.57C125.44,205.48,123.84,206.33,122.33,207.09Z" fill="#e0954a" />
      <path d="M137.58,198.61h0l-1.65,1C136.47,199.25,137,198.93,137.58,198.61Z" fill="#e0954a" />
      <path
        d="M137.7,223.53c-11.44,4.72-22.81,6.19-31.45,10.1a59.42,59.42,0,0,0-3.37-19.21c1.83-.43,3.55-.89,5.27-1.4.58-.17,1.14-.36,1.7-.55l.88-.3c.58-.2,1.16-.4,1.74-.64.3-.09.6-.22.91-.33.59-.24,1.2-.48,1.81-.74,2.18-.93,4.5-2,7.14-3.37,1.51-.76,3.11-1.61,4.84-2.57,0,0,0,0,0,0,.86-.46,1.76-1,2.68-1.48h0c.93-.52,1.9-1.07,2.89-1.65s2.07-1.17,3.16-1.81l1.65-1Z"
        fill="#f2c7c4" />
      <polygon points="137.7 223.53 137.58 198.62 137.58 198.61 137.59 198.61 137.7 223.53" fill="#f2c7c4" />
      <path d="M82.89,244.52l9.94-4.68C89.66,238.89,84.09,240.28,82.89,244.52Z" fill="#fff" />
      <path d="M57.25,215.4c-2.85,4.52,1.23,23.66,14.39,30C75.81,231.62,70,214.18,57.25,215.4Z" fill="#fff" />
      <path
        d="M98.29,207.31A20,20,0,0,0,91.6,221a9,9,0,0,0-1.08-2.82c-.33-.46-1,0-.94.56a24.32,24.32,0,0,0,1.06,3.33c.33,1.13.6,2.3.82,3.48a41.53,41.53,0,0,1,.77,7.34.24.24,0,1,0,.48,0,35.45,35.45,0,0,0-.08-6.68,20,20,0,0,0,5.09,8.49c1.86,1.86,4.76,4.37,7.61,3s3.14-5.31,1.93-7.78a13.4,13.4,0,0,0-6.45-6,13.76,13.76,0,0,0-5.61-1.23,18.28,18.28,0,0,0,6.12-5.5c1.68-2.37,3.73-6.14,3-9.09a2.92,2.92,0,0,0-2.6-2.41A5.43,5.43,0,0,0,98.29,207.31Zm-5,16.79s0,0,0,0a14.63,14.63,0,0,1,7,1.37,12.51,12.51,0,0,1,5.69,5.12,5.09,5.09,0,0,1,.39,4.26,2.82,2.82,0,0,1-3,1.92c-2.55-.31-4.8-2.79-6.33-4.79A27.39,27.39,0,0,1,93.34,224.1Zm8.17-16.93c1.48.08,1.79,1.9,1.53,3.28a16.82,16.82,0,0,1-3.78,7.33,17.51,17.51,0,0,1-6.45,4.81.52.52,0,0,0-.11.07,22.83,22.83,0,0,1,1.55-7.58,18.57,18.57,0,0,1,4.29-6.35A4.52,4.52,0,0,1,101.51,207.17Z"
        fill="#fff" />
      <path
        d="M86.69,220.38A26.6,26.6,0,0,1,87.32,235c-.09.39-.68.3-.61-.09a28.84,28.84,0,0,0-.93-14,.64.64,0,0,1,.14-.68.68.68,0,0,1,.23-.14A.44.44,0,0,1,86.69,220.38Z"
        fill="#fff" />
      <path
        d="M80.73,220.5a37.51,37.51,0,0,1,3.42,14.32c0,.58-.76.84-.82.24a51.1,51.1,0,0,0-1.26-7.13,53.07,53.07,0,0,0-2.35-6.81C79.43,220.41,80.4,219.83,80.73,220.5Z"
        fill="#fff" />
      <path
        d="M75.48,220.84l.17,0c.19,0,.29.24.33.42.33,1.21.8,2.37,1.11,3.59s.57,2.47.78,3.72a42.28,42.28,0,0,1,.55,7.56c0,.5-.77.62-.79.12a54.6,54.6,0,0,0-.77-7.38q-.3-1.75-.75-3.45A24.27,24.27,0,0,0,75,221.72a.68.68,0,0,1,0-.59l.08-.13A.33.33,0,0,1,75.48,220.84Z"
        fill="#fff" />
      <path d="M137.92,195c-.64.19-30,15.52-30,15.52L116.42,232,144.88,226Z" fill="#345870" />
      <path
        d="M108.53,210.36a89.77,89.77,0,0,1,11-5.33q0-.74,0-1.47a19.15,19.15,0,0,1,5.68-12.45.33.33,0,0,1,.48.46,16.69,16.69,0,0,0-4.56,12.08,17.36,17.36,0,0,0,1.2,5.74,18.13,18.13,0,0,0,1.25,2.54,17.89,17.89,0,0,1,1.69,2.67,1,1,0,0,1-1.49,1.18,7.16,7.16,0,0,1-2.06-2.73,17.12,17.12,0,0,1-1.33-3.12,18.7,18.7,0,0,1-.71-3.22c-3.41,1.61-6.7,3.48-9.94,5.41a182,182,0,0,0,6.75,17.32,28.19,28.19,0,0,1,13.29-2.81,12.53,12.53,0,0,1-1.56-2.13,13.44,13.44,0,0,1-1.62-5.57c0-.36.58-.46.64-.09a11.36,11.36,0,0,0,2.28,4.82,12.53,12.53,0,0,0,1.32,1.41,1.36,1.36,0,0,1,.42-.08,86.79,86.79,0,0,0,33.23-6.31A93.19,93.19,0,0,0,193,200.86a84.53,84.53,0,0,0,12.67-14.44c.28-.42,1,0,.7.38a86.93,86.93,0,0,1-10.68,13.57,91.07,91.07,0,0,1-13.3,11.18,88.88,88.88,0,0,1-31.59,13.69,86.89,86.89,0,0,1-17.08,2,1,1,0,0,1,.11,1.14,1.06,1.06,0,0,1-1.42.42,8.18,8.18,0,0,1-1.19-.79.79.79,0,0,1-.76.44,30.46,30.46,0,0,0-7.19.64,27.81,27.81,0,0,0-6.77,2.49,1,1,0,0,1-1.33-.34,125.42,125.42,0,0,1-7-19.44A1,1,0,0,1,108.53,210.36Z"
        fill="#3a6885" />
      <path
        d="M78.65,111.62c4.68-.53,9.39.32,14.09.6s9.26.41,13.89.39a238.42,238.42,0,0,0,27.88-1.81c5.25-.64,10.52-1.31,15.79-1.74,1.8-.15,1.7,2.42.26,2.91-9,3-18.54,4.27-27.93,5a217.28,217.28,0,0,1-28.3.34q-3.85-.21-7.7-.55a30.25,30.25,0,0,1-8.13-1.5C76.91,114.65,76.63,111.85,78.65,111.62Z"
        fill="#ebf4fa" />
      <path
        d="M77.31,123c9.82,1.22,19.57,2.73,29.47,3.3a252.61,252.61,0,0,0,29.38-.13c5.63-.33,11.27-.47,16.85-1.2a1.26,1.26,0,1,1,.53,2.46c-4.86,1-9.71,2.16-14.65,2.79s-10.15,1-15.25,1.2a202.9,202.9,0,0,1-30.19-1.14,122.7,122.7,0,0,1-17-2.93C74,126.72,74.68,122.7,77.31,123Z"
        fill="#ebf4fa" />
      <path
        d="M150.94,108.31a1.11,1.11,0,0,0,.2,1.13,2.3,2.3,0,0,1,0,.26c.26,3.78.52,7.58.83,11.36.16,1.85.31,3.7.47,5.56a24.37,24.37,0,0,0,.7,5.16l2.36-.82a30.12,30.12,0,0,0-.22-4.34q-.27-2.91-.52-5.82c-.32-3.7-.71-7.4-1.08-11.1,0-.21-.05-.41-.07-.61a17.31,17.31,0,0,0,1.53-3c.48-1.16.92-2.34,1.3-3.54a43,43,0,0,0,1.67-7.46.94.94,0,0,0-1.83-.47,32.74,32.74,0,0,1-2,7.12c-.35.87-.77,1.71-1.2,2.55-.63-5.77-1.34-11.53-2-17.3-.08-.81-1.35-.85-1.3,0,.41,7,.75,14.08,1.23,21.12C151,108.15,151,108.23,150.94,108.31Z"
        fill="#5186c7" />
      <path
        d="M71.82,100.23c.56,2.41,1.07,4.84,1.65,7.25.29,1.19.57,2.37.87,3.55.23,1,.33,2.34,1,3.13-.24,2.32-.49,4.63-.77,6.94-.24,2.13-.67,4.28-1,6.42l2.94.77c.4-2.38.57-4.86.82-7.19.35-3.2.55-6.39.61-9.61.14-6.63.08-13.18-.41-19.78-.07-.89-1.42-.92-1.4,0,.14,5.44.08,11-.31,16.43-.12-.39-.23-.8-.36-1.2-.72-2.38-1.53-4.73-2.26-7.1A.75.75,0,0,0,71.82,100.23Z"
        fill="#5186c7" />
      <path d="M50.3,121.38l23.34,6.14,2.63.69,1.13-7.11-25.21-8.74C51,117.74,50.3,121.38,50.3,121.38Z"
        fill="#5186c7" />
      <path
        d="M88.61,52.24c-5.07-5.65-8.17-14.55-8.17-14.55-2.81.81-5.73-1.94-3.51-5C72,32.54,79.78,16.6,90,20l8.25,29.32Z"
        fill="#345870" />
      <path d="M129.93,13.72c8.66,10.8,7.49,25.58,7.49,25.58L123.3,17.57Z" fill="#345870" />
      <path
        d="M127.48,50.19l.24,10L128,71.73l.29,6a12.6,12.6,0,0,1-11.21,13.14h0a12.6,12.6,0,0,1-13.81-10.52L97.59,45.11Z"
        fill="#f2c7c4" />
      <path d="M127.78,58.08l.29,15.11c-12.76,1.27-21.52-8-23.85-14.92C109.71,56.42,127.78,58.08,127.78,58.08Z"
        fill="#345870" />
      <path
        d="M91.11,49.37c-2.64-.27-5.58.8-6.79,3.17-1,2-.62,4.37.21,6.43a13.2,13.2,0,0,0,5.34,6.49,9.65,9.65,0,0,0,8.22.87,7.61,7.61,0,0,0,4.9-6.44C103.28,54.43,95.86,49.86,91.11,49.37Z"
        fill="#f2c7c4" />
      <path
        d="M96.84,58c-2.57-1.79-5.28-1.68-8.18-.93-.43.11-.33.85.13.79,2.37-.31,5.14,1.06,6.84,2.3a1.21,1.21,0,0,0,1,.11,1.25,1.25,0,0,0,.73-.58A1.27,1.27,0,0,0,96.84,58Z"
        fill="#345870" />
      <path
        d="M127.45,19.38a15.19,15.19,0,0,0-9.36-3.09C109.22,16.11,99,21.54,94.65,28c-6.3,9.37-4.29,20.59,2,28.95a31.66,31.66,0,0,0,11,9.31c7.53,3.84,17.24,4.67,24-.34,4.92-3.61,7.57-9.77,7.95-15.87C140.24,39.71,135.76,26,127.45,19.38Z"
        fill="#f2c7c4" />
      <path
        d="M131.39,37.55c.55,1.17.32,2.48-.52,2.92s-2-.15-2.51-1.32a2.22,2.22,0,0,1,.53-2.92C129.72,35.79,130.85,36.38,131.39,37.55Z"
        fill="#345870" />
      <path
        d="M118.35,43.14a2.21,2.21,0,0,1-.52,2.91c-.84.44-2-.15-2.51-1.32a2.22,2.22,0,0,1,.53-2.92C116.68,41.37,117.81,42,118.35,43.14Z"
        fill="#345870" />
      <path
        d="M128.93,43.11c-2.13-2.49-4.37-4.84-6.65-7.19-.22-.23-.6.06-.39.31,1.69,2.06,3.39,4.08,5.18,6.06a11.06,11.06,0,0,1,2.41,3.17,3.26,3.26,0,0,1-.6,2.91.32.32,0,0,0,.3.51,2.14,2.14,0,0,0,1.51-2.25A6.11,6.11,0,0,0,128.93,43.11Z"
        fill="#345870" />
      <path d="M132.06,25.13c-1.27-1.75-6.88.5-7.15,2.66C124.56,30.6,134.24,28.15,132.06,25.13Z" fill="#345870" />
      <path d="M112.27,33.93c-1.67-1.91-7.88,1.26-8,3.81C104.16,42.16,114.32,36.26,112.27,33.93Z" fill="#345870" />
      <path d="M121.31,53.22c.09-.59,5.13-1,5.7-.44.37.37-.53,2.53-2.69,2.67C122.54,55.56,121.21,53.91,121.31,53.22Z"
        fill="#fff" />
      <path d="M97.14,28c5,7.83,6.12,25.66,0,23.54s-8.25-2-8.25-2C67.9,28.9,83.16,12.07,97.14,28Z" fill="#345870" />
      <path
        d="M98.13,30c4.45-11.59,10.47-13.58,23.52-7.51,3.86,1.79,14.41,1.41,15-3,.37-2.9-3.08-3.8-3.08-3.8,6.77-2,3.83-8.23-1.44-5.31C140.85,3,134-3.07,128.43,1.71c-4.31,3.68-7.72,5.24-13.81,3.63C105.55,3,90,7,88.76,22Z"
        fill="#345870" />
    </g>
  </g>
</svg>